# xmcd
#
# Track frame offsets:
#       150
#       22671
#       33747
#       53028
#       67448
#       89342
#       106454
#       116770
#       133365
#       147009
#
# Disc length: 2248 seconds
#
# Revision: 1
# Processed by: cddbd v1.4PL0 Copyright (c) Steve Scherf et al.
# Submitted via: MusiCat 1.1
#
DISCID=9308c60a
DTITLE=Ramsey Lewis - Mother's Nature Son
DYEAR=1900
DGENRE=
TTITLE0=Mother Nature's Son
TTITLE1=Rocky Raccoon
TTITLE2=Julia
TTITLE3=Back In The USSR
TTITLE4=Dear Prudence
TTITLE5=Cry Baby Cry
TTITLE6=Good Night
TTITLE7=Everybody's Got Something To
TTITLE8=Sexy Sadie
TTITLE9=Black Bird
EXTD=\n\n
EXTT0=
EXTT1=
EXTT2=
EXTT3=
EXTT4=
EXTT5=
EXTT6=
EXTT7=
EXTT8=
EXTT9=
PLAYORDER=
